<svg width="24" height="24" viewBox="0 0 24 24" fill="none" xmlns="http://www.w3.org/2000/svg">
<g id="circum:search">
<path id="Vector" d="M20.0308 20.79C20.4908 21.25 21.2008 20.54 20.7408 20.09L16.9908 16.33C18.3063 14.8745 19.0334 12.9818 19.0308 11.02C19.0308 6.63 15.4608 3.06 11.0708 3.06C6.68084 3.06 3.11084 6.63 3.11084 11.02C3.11084 15.41 6.68084 18.98 11.0708 18.98C13.0508 18.98 14.8808 18.25 16.2808 17.04L20.0308 20.79ZM4.10984 11.02C4.10984 7.18 7.23984 4.06 11.0698 4.06C14.9098 4.06 18.0298 7.18 18.0298 11.02C18.0298 14.86 14.9098 17.98 11.0698 17.98C7.23984 17.98 4.10984 14.86 4.10984 11.02Z" fill="black"/>
</g>
</svg>
