<svg width="18" height="19" viewBox="0 0 18 19" fill="none" xmlns="http://www.w3.org/2000/svg">
<g id="grommet-icons:google" clip-path="url(#clip0_1_102)">
<path id="Vector" d="M3.94951 8.12636C4.30042 7.0647 4.97765 6.14097 5.88459 5.48696C6.79154 4.83295 7.88185 4.48207 9.00001 4.48436C10.2675 4.48436 11.4135 4.93436 12.3135 5.67086L14.9325 3.05261C13.3365 1.66136 11.2913 0.802612 9.00001 0.802612C5.45251 0.802612 2.39851 2.82611 0.930008 5.79011L3.94951 8.12636Z" fill="#EA4335"/>
<path id="Vector_2" d="M12.03 14.3124C11.2125 14.8396 10.1745 15.1209 9.00003 15.1209C7.88633 15.1232 6.80013 14.7751 5.89521 14.1259C4.99028 13.4767 4.31249 12.5593 3.95778 11.5036L0.92778 13.8039C1.67121 15.3086 2.82173 16.5747 4.24865 17.4583C5.67556 18.3419 7.32168 18.8077 9.00003 18.8026C11.1998 18.8026 13.3013 18.0204 14.8755 16.5526L12.0308 14.3124H12.03Z" fill="#34A853"/>
<path id="Vector_3" d="M14.8753 16.5526C16.5216 15.0166 17.5903 12.7306 17.5903 9.80264C17.5903 9.27014 17.5086 8.69789 17.3863 8.16614H8.99983V11.6439H13.8268C13.5891 12.8131 12.9493 13.7184 12.0306 14.3124L14.8753 16.5526Z" fill="#4A90E2"/>
<path id="Vector_4" d="M3.95784 11.5036C3.77435 10.9553 3.68114 10.3808 3.68184 9.80263C3.68184 9.21613 3.77559 8.65288 3.94959 8.12638L0.930087 5.79013C0.312371 7.03715 -0.00605996 8.41102 8.73409e-05 9.80263C8.73409e-05 11.2426 0.333837 12.6001 0.927837 13.8039L3.95784 11.5036Z" fill="#FBBC05"/>
</g>
<defs>
<clipPath id="clip0_1_102">
<rect width="18" height="18" fill="white" transform="translate(0 0.802612)"/>
</clipPath>
</defs>
</svg>
