<svg width="142" height="39" viewBox="0 0 142 39" fill="none" xmlns="http://www.w3.org/2000/svg">
<rect width="142" height="39" fill="#726767"/>
<g id="&#209;&#128;&#208;&#181;&#208;&#179;&#208;&#184;&#209;&#129;&#209;&#130;&#209;&#128;&#208;&#176;&#209;&#134;&#208;&#184;&#209;&#143;">
<rect width="1440" height="950" transform="translate(-649 -124)" fill="#FFFFFD"/>
<g id="Frame 1">
<rect x="-219.5" y="-41.5" width="581" height="785" rx="19.5" fill="white"/>
<g id="logo">
<path id="logo.svg" fill-rule="evenodd" clip-rule="evenodd" d="M142 0V38.3026H120.364V0H142ZM46.9801 12.3969C48.0104 12.3969 49.0333 12.4655 50.0488 12.6028C51.0644 12.7401 51.9842 13.0215 52.8085 13.4471C53.6327 13.8727 54.295 14.4699 54.7954 15.2387C55.2958 16.0075 55.546 17.0097 55.546 18.2452V29.2006C55.546 30.0243 55.5975 30.6284 55.7006 31.0128C55.8036 31.3972 56.1495 31.5894 56.7382 31.5894C57.062 31.5894 57.4447 31.5207 57.8862 31.3835V34.1017C57.2386 34.4586 56.3408 34.6371 55.1928 34.6371C54.2214 34.6371 53.4487 34.3831 52.8747 33.8752C52.3007 33.3672 52.0137 32.5367 52.0137 31.3835C50.9834 32.5367 49.7839 33.3672 48.4151 33.8752C47.0463 34.3831 45.5672 34.6371 43.9776 34.6371C42.9473 34.6371 41.9686 34.5273 41.0414 34.3076C40.1141 34.088 39.312 33.7448 38.635 33.278C37.9579 32.8112 37.4207 32.2003 37.0233 31.4452C36.6259 30.6902 36.4272 29.7772 36.4272 28.7064C36.4272 27.4983 36.648 26.5098 37.0896 25.741C37.5311 24.9722 38.1125 24.3476 38.8336 23.8671C39.5548 23.3866 40.379 23.0228 41.3063 22.7757C42.2335 22.5285 43.1828 22.3226 44.1542 22.1579C45.1845 21.9657 46.1632 21.8215 47.0905 21.7254C48.0177 21.6293 48.8346 21.492 49.541 21.3136C50.2475 21.1351 50.8068 20.8743 51.2189 20.531C51.631 20.1878 51.8371 19.6867 51.8371 19.0278C51.8371 18.259 51.6825 17.6412 51.3734 17.1744C51.0644 16.7076 50.667 16.3507 50.1813 16.1036C49.6956 15.8565 49.151 15.6917 48.5476 15.6094C47.9441 15.527 47.3481 15.4858 46.7593 15.4858C45.1698 15.4858 43.8452 15.7672 42.7855 16.3301C41.7257 16.893 41.1517 17.9569 41.0634 19.522H37.3103C37.3692 18.204 37.6636 17.092 38.1934 16.186C38.7233 15.2799 39.4297 14.5454 40.3128 13.9825C41.1959 13.4197 42.2041 13.0147 43.3374 12.7675C44.4707 12.5204 45.6849 12.3969 46.9801 12.3969ZM93.7836 12.3969C95.8147 12.3969 97.4999 12.7881 98.8392 13.5707C100.179 14.3532 101.253 15.3485 102.063 16.5566C102.872 17.7647 103.431 19.0827 103.74 20.5104C104.049 21.9382 104.175 23.2973 104.116 24.5878H87.028C86.9986 25.5214 87.1163 26.4069 87.3812 27.2443C87.6461 28.0817 88.073 28.8231 88.6617 29.4683C89.2504 30.1136 90.001 30.6284 90.9136 31.0128C91.8261 31.3972 92.9005 31.5894 94.1368 31.5894C95.7264 31.5894 97.0289 31.2462 98.0445 30.5597C99.06 29.8733 99.7297 28.83 100.053 27.4296H103.762C103.262 29.8184 102.158 31.6168 100.451 32.825C98.7436 34.0331 96.5948 34.6371 94.0044 34.6371C92.1793 34.6371 90.5971 34.3626 89.2578 33.8134C87.9184 33.2643 86.7925 32.4955 85.88 31.507C84.9675 30.5185 84.2831 29.3379 83.8268 27.965C83.3705 26.5922 83.113 25.0958 83.0541 23.4758C83.0541 21.8558 83.319 20.3732 83.8489 19.0278C84.3787 17.6824 85.122 16.5154 86.0787 15.527C87.0354 14.5385 88.1686 13.7697 89.4786 13.2206C90.7885 12.6714 92.2235 12.3969 93.7836 12.3969ZM130.255 12.3969C129.254 12.3969 128.246 12.5136 127.23 12.747C126.215 12.9803 125.302 13.3373 124.493 13.8178C123.683 14.2983 123.021 14.9229 122.506 15.6917C121.991 16.4605 121.733 17.3803 121.733 18.4512C121.733 19.824 122.101 20.8948 122.837 21.6636C123.573 22.4324 124.493 23.0296 125.597 23.4552C126.701 23.8808 127.9 24.2103 129.195 24.4437C130.49 24.6771 131.69 24.9379 132.794 25.2262C133.898 25.5145 134.818 25.892 135.553 26.3588C136.289 26.8256 136.657 27.512 136.657 28.4181C136.657 29.0771 136.481 29.6193 136.127 30.0449C135.774 30.4705 135.325 30.7931 134.781 31.0128C134.236 31.2324 133.64 31.3835 132.993 31.4658C132.345 31.5482 131.727 31.5894 131.138 31.5894C130.373 31.5894 129.629 31.5207 128.908 31.3835C128.187 31.2462 127.539 31.0196 126.965 30.7039C126.391 30.3881 125.928 29.9626 125.575 29.4271C125.221 28.8917 125.03 28.2396 125.001 27.4708H121.248C121.306 28.7888 121.601 29.9076 122.131 30.8274C122.66 31.7473 123.367 32.4886 124.25 33.0515C125.133 33.6143 126.149 34.0193 127.297 34.2664C128.445 34.5136 129.652 34.6371 130.917 34.6371C132.065 34.6371 133.221 34.5342 134.383 34.3282C135.546 34.1223 136.591 33.7585 137.518 33.2368C138.446 32.7151 139.196 32.0287 139.77 31.1775C140.344 30.3264 140.631 29.2555 140.631 27.965C140.631 26.9491 140.418 26.098 139.991 25.4115C139.564 24.7251 139.005 24.1554 138.313 23.7023C137.621 23.2493 136.827 22.8855 135.929 22.6109C135.031 22.3363 134.111 22.103 133.169 21.9108C132.286 21.7186 131.403 21.5332 130.52 21.3547C129.637 21.1763 128.842 20.9566 128.136 20.6958C127.429 20.4349 126.848 20.1055 126.391 19.7073C125.935 19.3092 125.707 18.8081 125.707 18.2041C125.707 17.6549 125.854 17.2087 126.149 16.8655C126.443 16.5223 126.826 16.2477 127.297 16.0418C127.768 15.8359 128.29 15.6917 128.864 15.6094C129.438 15.527 130.005 15.4858 130.564 15.4858C131.182 15.4858 131.793 15.5476 132.396 15.6711C133 15.7947 133.552 15.9938 134.052 16.2683C134.553 16.5429 134.965 16.9067 135.289 17.3597C135.612 17.8128 135.804 18.3825 135.863 19.0689H139.616C139.527 17.7785 139.233 16.7008 138.733 15.8359C138.232 14.971 137.563 14.2846 136.724 13.7766C135.885 13.2686 134.921 12.9117 133.831 12.7058C132.742 12.4998 131.55 12.3969 130.255 12.3969ZM24.4173 12.3969C25.5653 12.3969 26.6029 12.5136 27.5302 12.747C28.4574 12.9803 29.2522 13.3441 29.9145 13.8384C30.5768 14.3326 31.0919 14.971 31.4599 15.7535C31.8278 16.536 32.0118 17.4764 32.0118 18.5747V34.1841H28.2587V20.2221C28.2587 19.5632 28.1998 18.9454 28.0821 18.3688C27.9643 17.7922 27.7436 17.2911 27.4198 16.8655C27.096 16.4399 26.6471 16.1036 26.0731 15.8565C25.4991 15.6094 24.7558 15.4858 23.8433 15.4858C21.9888 15.4858 20.5317 15.98 19.472 16.9685C18.4123 17.9569 17.8825 19.2749 17.8825 20.9223V34.1841H14.1294V20.2221C14.1294 19.5357 14.0631 18.9042 13.9307 18.3276C13.7982 17.751 13.5701 17.2499 13.2463 16.8243C12.9225 16.3987 12.4883 16.0693 11.9437 15.8359C11.3991 15.6025 10.7 15.4858 9.84639 15.4858C8.75725 15.4858 7.82266 15.6917 7.0426 16.1036C6.26254 16.5154 5.62967 17.0097 5.14397 17.5863C4.65827 18.1629 4.30504 18.7601 4.08427 19.3778C3.86349 19.9956 3.75311 20.5104 3.75311 20.9223V34.1841H0V12.8911H3.53234V16.0212H3.62065C5.32795 13.605 7.78585 12.3969 10.9944 12.3969C12.4073 12.3969 13.6878 12.6714 14.8358 13.2206C15.9838 13.7697 16.7933 14.7033 17.2643 16.0212C18.0296 14.868 19.0378 13.9757 20.2889 13.3441C21.5399 12.7126 22.916 12.3969 24.4173 12.3969ZM65.3483 4.77753V22.1991L75.7687 12.8911H80.8022L71.7506 20.634L81.4646 34.1841H76.6959L68.8806 23.064L65.3483 26.1117V34.1841H61.5952V4.77753H65.3483ZM119.879 12.3969V16.1036C118.377 16.1036 117.097 16.2958 116.037 16.6802C114.978 17.0646 114.124 17.6274 113.476 18.3688C112.829 19.1101 112.358 20.0093 112.063 21.0665C111.769 22.1236 111.622 23.3385 111.622 24.7114V34.1841H107.869V12.8911H111.401V17.3803H111.489C112.402 15.6505 113.521 14.3738 114.845 13.5501C116.17 12.7264 117.848 12.342 119.879 12.3969ZM51.7929 23.1875C51.3219 23.517 50.7038 23.7572 49.9384 23.9083C49.1731 24.0593 48.371 24.1828 47.532 24.2789C46.6931 24.375 45.8468 24.4849 44.9932 24.6084C44.1395 24.732 43.3742 24.931 42.6971 25.2056C42.0201 25.4802 41.4682 25.8714 41.0414 26.3794C40.6145 26.8874 40.4011 27.5806 40.4011 28.4593C40.4011 29.0359 40.5262 29.5232 40.7764 29.9214C41.0266 30.3195 41.3504 30.6421 41.7478 30.8892C42.1452 31.1363 42.6088 31.3148 43.1387 31.4246C43.6685 31.5345 44.2278 31.5894 44.8165 31.5894C46.0529 31.5894 47.1126 31.4315 47.9956 31.1157C48.8787 30.8 49.5999 30.4019 50.1592 29.9214C50.7185 29.4409 51.1306 28.9192 51.3955 28.3563C51.6605 27.7934 51.7929 27.2649 51.7929 26.7707V23.1875ZM93.5628 15.4858C92.5914 15.4858 91.7157 15.6437 90.9356 15.9594C90.1556 16.2752 89.4859 16.7076 88.9266 17.2568C88.3673 17.8059 87.9258 18.4443 87.602 19.1719C87.2782 19.8995 87.0869 20.6752 87.028 21.4989H100.142C100.083 20.6752 99.8842 19.8927 99.5457 19.1513C99.2072 18.41 98.7509 17.7716 98.1769 17.2362C97.6029 16.7008 96.9259 16.2752 96.1458 15.9594C95.3658 15.6437 94.5048 15.4858 93.5628 15.4858Z" fill="#1B1C1F"/>
</g>
<rect x="-219.5" y="-41.5" width="581" height="785" rx="19.5" stroke="#E0E5ED"/>
</g>
</g>
</svg>
